<?xml version="1.0" standalone="no"?><!DOCTYPE svg PUBLIC "-//W3C//DTD SVG 1.1//EN" "http://www.w3.org/Graphics/SVG/1.1/DTD/svg11.dtd"><svg t="1724900969861" class="icon" viewBox="0 0 1024 1024" version="1.1" xmlns="http://www.w3.org/2000/svg" p-id="18941" xmlns:xlink="http://www.w3.org/1999/xlink" width="48" height="48"><path d="M944 599.04a16 16 0 0 1 15.552 12.288L960 615.04v328a16 16 0 0 1-12.352 15.616l-3.648 0.384H616a16 16 0 0 1-15.552-12.288l-0.448-3.712V615.04a16 16 0 0 1 12.352-15.552l3.648-0.448h328zM238.976 536.96a16 16 0 0 1 16 16v200.064c0 8.832 7.168 16 16 16h210.048a16 16 0 0 1 16 16v64a16 16 0 0 1-16 16H174.976a16 16 0 0 1-16-16V552.96a16 16 0 0 1 16-16h64z m609.024 158.08h-136a16 16 0 0 0-15.552 12.288l-0.448 3.648v136a16 16 0 0 0 12.352 15.616l3.648 0.384h136a16 16 0 0 0 15.552-12.288l0.448-3.712V711.04a16 16 0 0 0-16-16z m1.024-536.064a16 16 0 0 1 16 16v316.032a16 16 0 0 1-16 16h-64a16 16 0 0 1-16-16V270.976a16 16 0 0 0-16-16H532.992a16 16 0 0 1-16-16v-64a16 16 0 0 1 16-16h316.032zM408 64a16 16 0 0 1 15.552 12.352l0.448 3.648v328a16 16 0 0 1-12.352 15.552l-3.648 0.448H80a16 16 0 0 1-15.552-12.352L64 408V80a16 16 0 0 1 12.352-15.552L80 64h328z m-96 96H176a16 16 0 0 0-15.552 12.352L160 176v136a16 16 0 0 0 12.352 15.552l3.648 0.448h136a16 16 0 0 0 15.552-12.352l0.448-3.648V176a16 16 0 0 0-16-16z" fill="#0621c2" p-id="18942"></path></svg>