<?xml version="1.0" standalone="no"?><!DOCTYPE svg PUBLIC "-//W3C//DTD SVG 1.1//EN" "http://www.w3.org/Graphics/SVG/1.1/DTD/svg11.dtd"><svg t="1741788728108" class="icon" viewBox="0 0 1024 1024" version="1.1" xmlns="http://www.w3.org/2000/svg" p-id="11772" xmlns:xlink="http://www.w3.org/1999/xlink" width="200" height="200"><path d="M288 96h448a192 192 0 0 1 192 192v448a192 192 0 0 1-192 192h-448a192 192 0 0 1-192-192v-448a192 192 0 0 1 192-192z m12.16 521.6c0-35.84 13.824-55.552 45.568-65.28h302.272c86.912 5.12 138.048-38.272 138.048-121.6 0-82.56-49.984-127.936-137.984-128h-215.68a29.696 29.696 0 1 0 0 59.392h215.68c56.32 0.064 78.528 20.224 78.528 68.608 0 47.616-20.992 65.472-76.8 62.208L341.504 492.8l-7.808 1.024c-60.416 16.512-92.928 60.032-92.928 123.776 0 64.768 34.048 106.432 96.128 116.288l197.12 0.384a29.696 29.696 0 0 0 0-59.456H341.504c-27.968-4.8-41.28-21.12-41.28-57.216z m414.464 170.624a90.56 90.56 0 1 0 0-181.12 90.56 90.56 0 0 0 0 181.12zM289.024 398.72a67.904 67.904 0 1 0 0-135.808 67.904 67.904 0 0 0 0 135.808z" fill="#0052d9" p-id="11773"></path></svg>